<?xml version="1.0" encoding="UTF-8" standalone="no" ?>
<!DOCTYPE svg PUBLIC "-//W3C//DTD SVG 1.1//EN" "http://www.w3.org/Graphics/SVG/1.1/DTD/svg11.dtd">
<svg xmlns="http://www.w3.org/2000/svg" xmlns:xlink="http://www.w3.org/1999/xlink" version="1.1" width="1280" height="1024" viewBox="0 0 1280 1024" xml:space="preserve">
<desc>Created with Fabric.js 5.3.0</desc>
<defs>
</defs>
<g transform="matrix(1 0 0 1 640 512)" id="background-logo"  >
<rect style="stroke: none; stroke-width: 0; stroke-dasharray: none; stroke-linecap: butt; stroke-dashoffset: 0; stroke-linejoin: miter; stroke-miterlimit: 4; fill: rgb(255,255,255); fill-opacity: 0; fill-rule: nonzero; opacity: 1;"  paint-order="stroke"  x="-640" y="-512" rx="0" ry="0" width="1280" height="1024" />
</g>
<g transform="matrix(-1.2499756711225336 1.2499756711225338 -1.2499756711225338 -1.2499756711225336 639.7689040639575 405.70876411668314)" id="logo-logo"  >
<g style=""  paint-order="stroke"   >
		<g transform="matrix(0.917930923744532 0 0 0.9179309237445321 0 0)"  >
<g style=""  paint-order="stroke"   >
		<g transform="matrix(1 0 0 1 0 0)"  >
<linearGradient id="SVGID_475687_9799" gradientUnits="userSpaceOnUse" gradientTransform="matrix(1 0 0 1 -100 -100)"  x1="0" y1="0" x2="0" y2="200">
<stop offset="0%" style="stop-color:rgb(23,234,217);stop-opacity: 1"/>
<stop offset="100%" style="stop-color:rgb(96,120,234);stop-opacity: 1"/>
</linearGradient>
<polygon style="stroke: none; stroke-width: 1; stroke-dasharray: none; stroke-linecap: butt; stroke-dashoffset: 0; stroke-linejoin: miter; stroke-miterlimit: 4; fill: url(#SVGID_475687_9799); fill-rule: nonzero; opacity: 1;"  paint-order="stroke"  points="100,100 0,100 0,95.12 95.12,95.12 95.12,-95.12 -95.12,-95.12 -95.12,0 -100,0 -100,-100 100,-100 100,100 " />
</g>
</g>
</g>
</g>
</g>
<g transform="matrix(1.9211538461538462 0 0 1.9211538461538462 640.1665829101114 669.6823249532098)" id="text-logo"  >
<g style=""  paint-order="stroke"   >
		<g transform="matrix(1 0 0 1 0 0)" id="text-logo-path-0"  >
<path style="stroke: rgb(255,255,255); stroke-width: 0; stroke-dasharray: none; stroke-linecap: butt; stroke-dashoffset: 0; stroke-linejoin: miter; stroke-miterlimit: 4; fill: rgb(49,192,223); fill-rule: nonzero; opacity: 1;"  paint-order="stroke"  transform=" translate(-46.434999999999995, 8.05)" d="M 2.3 -16.1 L 2.3 0 L 3.91 0 L 3.91 -12.19 L 8.92 0 L 10.53 0 L 10.53 -16.1 L 8.92 -16.1 L 8.92 -3.91 L 3.91 -16.1 Z M 17.09 -16.1 L 17.09 0 L 23.99 0 L 23.99 -1.38 L 18.7 -1.38 L 18.7 -7.36 L 22.61 -7.36 L 22.61 -8.74 L 18.7 -8.74 L 18.7 -14.72 L 23.76 -14.72 L 23.76 -16.1 Z M 28.01 0 L 29.69 0 L 32.34 -6.26 L 34.98 0 L 36.66 0 L 33.26 -8.05 L 36.66 -16.1 L 34.98 -16.1 L 32.41 -10 L 29.83 -16.1 L 28.15 -16.1 L 31.49 -8.21 Z M 40.46 0 L 42.14 0 L 44.78 -6.26 L 47.43 0 L 49.1 0 L 45.7 -8.05 L 49.1 -16.1 L 47.43 -16.1 L 44.85 -10 L 42.27 -16.1 L 40.59 -16.1 L 43.93 -8.21 Z M 64.35 -16.1 L 62.05 -16.1 L 59.32 -6.26 L 56.58 -16.1 L 54.28 -16.1 L 54.28 0 L 55.89 0 L 55.89 -12.79 L 58.49 -3.45 L 60.14 -3.45 L 62.74 -12.79 L 62.74 0 L 64.35 0 Z M 70.91 -16.1 L 70.91 0 L 77.81 0 L 77.81 -1.38 L 72.52 -1.38 L 72.52 -7.36 L 76.43 -7.36 L 76.43 -8.74 L 72.52 -8.74 L 72.52 -14.72 L 77.58 -14.72 L 77.58 -16.1 Z M 86.66 -16.1 L 83.21 -16.1 L 83.21 0 L 86.66 0 C 88.85 0 90.57 -0.64 90.57 -3.68 L 90.57 -12.42 C 90.57 -15.5 88.85 -16.1 86.66 -16.1 Z M 84.82 -14.72 L 86.66 -14.72 C 88.07 -14.72 88.96 -14.28 88.96 -12.19 L 88.96 -3.91 C 88.96 -1.82 88.07 -1.38 86.66 -1.38 L 84.82 -1.38 Z" stroke-linecap="round" />
</g>
</g>
</g>
<g transform="matrix(0.3195539919344881 0 0 0.3195539919344881 639.7689040639575 224.16359841651666)" id="shape-df178848-68e1-47ae-a917-0754787c115c"  >
<g style=""  paint-order="stroke"   >
		<g transform="matrix(1 0 0 1 0 0)" id="path-01_00000094584749756385478990000011065371131071085490_"  >
<linearGradient id="SVGID_9801" gradientUnits="userSpaceOnUse" gradientTransform="matrix(1 0 0 1 -305 1640.0212399999998)"  x1="0" y1="0" x2="0" y2="300">
<stop offset="0%" style="stop-color:rgb(245,81,95);stop-opacity: 1"/>
<stop offset="100%" style="stop-color:rgb(159,4,27);stop-opacity: 1"/>
</linearGradient>
<path style="stroke: none; stroke-width: 1; stroke-dasharray: none; stroke-linecap: butt; stroke-dashoffset: 0; stroke-linejoin: miter; stroke-miterlimit: 4; fill: url(#SVGID_9801); fill-rule: nonzero; opacity: 1;"  paint-order="stroke"  transform=" translate(155, -1790.0212450000001)" d="M -305 1764.54614 L -305 1748.05188 C -305 1741.86072 -299.96176 1736.82263 -293.7706 1736.82263 L -208.20026000000001 1736.82263 L -208.20026000000001 1651.2506099999998 C -208.20026000000001 1645.0594499999997 -203.16202 1640.0212399999998 -196.97086000000002 1640.0212399999998 L -113.02916000000002 1640.0212399999998 C -106.83799000000002 1640.0212399999998 -101.79975000000002 1645.0594499999997 -101.79975000000002 1651.2506099999998 L -101.79975000000002 1736.82263 L -16.229410000000016 1736.82263 C -10.038240000000016 1736.82263 -5.000000000000016 1741.86072 -5.000000000000016 1748.05188 L -5.000000000000016 1786.24792 L -115.37164000000001 1786.24792 C -117.15494000000001 1786.24792 -118.67110000000001 1787.55542 -118.93122000000001 1789.31994 L -122.87276000000001 1815.88415 L -136.78298 1722.0495600000002 C -137.04308 1720.2850300000002 -138.55924000000002 1718.9774200000002 -140.34255000000002 1718.9774200000002 C -142.12584 1718.9774200000002 -143.64200000000002 1720.2850400000002 -143.90212000000002 1722.0495600000002 L -151.47822000000002 1773.09705 L -164.42767000000003 1685.88465 C -164.68777000000003 1684.12012 -166.20393000000004 1682.81483 -167.98724000000004 1682.81483 C -169.77053000000004 1682.81483 -171.28669000000005 1684.12245 -171.54681000000005 1685.88697 L -188.55496000000005 1800.62196 L -193.46196000000006 1767.61598 C -193.72443000000007 1765.85133 -195.23824000000008 1764.54616 -197.02155000000005 1764.54616 L -305 1764.54616 z M -112.26668 1793.44666 L -119.31551999999999 1840.9486100000001 C -119.57563999999999 1842.71314 -121.09179999999999 1844.0207500000001 -122.87508999999999 1844.0207500000001 C -124.65838999999998 1844.0207500000001 -126.17454999999998 1842.71313 -126.43466999999998 1840.9486100000001 L -140.34488 1747.11157 L -147.91863999999998 1798.14038 C -148.17875999999998 1799.90491 -149.69492 1801.21252 -151.47821 1801.21252 C -153.26152 1801.21252 -154.77768 1799.90722 -155.03778 1798.1427 L -167.98488 1710.9420200000002 L -184.99069 1825.66297 C -185.25079 1827.4275 -186.76462 1828.73511 -188.55026 1828.73511 C -190.33355 1828.73511 -191.84736 1827.42981 -192.10983000000002 1825.6652900000001 L -200.12648000000002 1771.7448800000002 L -305 1771.7448800000002 L -305 1831.9906100000003 C -305 1838.1817700000004 -299.96176 1843.2198600000004 -293.7706 1843.2198600000004 L -208.20026000000001 1843.2198600000004 L -208.20026000000001 1928.7918800000004 C -208.20026000000001 1934.9830400000005 -203.16202 1940.0212500000005 -196.97086000000002 1940.0212500000005 L -113.02916000000002 1940.0212500000005 C -106.83799000000002 1940.0212500000005 -101.79975000000002 1934.9830400000005 -101.79975000000002 1928.7918800000004 L -101.79975000000002 1843.2198600000004 L -16.229410000000016 1843.2198600000004 C -10.038240000000016 1843.2198600000004 -5.000000000000016 1838.1817700000004 -5.000000000000016 1831.9906100000003 L -5.000000000000016 1793.4466600000003 L -112.26668 1793.4466600000003 z" stroke-linecap="round" />
</g>
</g>
</g>
</svg>
